<mxfile host="app.diagrams.net" modified="2024-04-01T19:52:24.363Z" agent="Mozilla/5.0 (Windows NT 10.0; Win64; x64; rv:124.0) Gecko/20100101 Firefox/124.0" etag="HsHKAPqNkPtwPtWGd9gW" version="24.2.1" type="device">
  <diagram name="Page-1" id="edf60f1a-56cd-e834-aa8a-f176f3a09ee4">
    <mxGraphModel dx="1007" dy="646" grid="1" gridSize="10" guides="1" tooltips="1" connect="1" arrows="1" fold="1" page="1" pageScale="1" pageWidth="1100" pageHeight="850" background="none" math="0" shadow="0">
      <root>
        <mxCell id="0" />
        <mxCell id="1" parent="0" />
        <mxCell id="gjnau5sUS_3SNpeTT7CS-1" value="Data" style="edgeStyle=orthogonalEdgeStyle;rounded=0;orthogonalLoop=1;jettySize=auto;html=1;exitX=0;exitY=0.5;exitDx=0;exitDy=0;entryX=1;entryY=0.5;entryDx=0;entryDy=0;startArrow=classic;startFill=1;" edge="1" parent="1" source="xwZ5hImeOtsoNdcEPYOF-1" target="xwZ5hImeOtsoNdcEPYOF-2">
          <mxGeometry relative="1" as="geometry" />
        </mxCell>
        <mxCell id="xwZ5hImeOtsoNdcEPYOF-1" value="&lt;font style=&quot;font-size: 14px;&quot;&gt;Campus Connections&lt;/font&gt;" style="ellipse;whiteSpace=wrap;html=1;aspect=fixed;" parent="1" vertex="1">
          <mxGeometry x="500" y="195" width="90" height="90" as="geometry" />
        </mxCell>
        <mxCell id="xwZ5hImeOtsoNdcEPYOF-2" value="&lt;font style=&quot;font-size: 14px;&quot;&gt;Database&lt;/font&gt;" style="shape=datastore;whiteSpace=wrap;html=1;" parent="1" vertex="1">
          <mxGeometry x="300" y="205" width="70" height="70" as="geometry" />
        </mxCell>
        <mxCell id="xwZ5hImeOtsoNdcEPYOF-4" value="&lt;font style=&quot;font-size: 14px;&quot;&gt;Campus Event Schedule&lt;/font&gt;" style="rounded=0;whiteSpace=wrap;html=1;" parent="1" vertex="1">
          <mxGeometry x="600" y="70" width="140" height="60" as="geometry" />
        </mxCell>
        <mxCell id="xwZ5hImeOtsoNdcEPYOF-5" value="&lt;font style=&quot;font-size: 14px;&quot;&gt;Lecture Schedule&lt;/font&gt;" style="rounded=0;whiteSpace=wrap;html=1;" parent="1" vertex="1">
          <mxGeometry x="750" y="70" width="140" height="60" as="geometry" />
        </mxCell>
        <mxCell id="xwZ5hImeOtsoNdcEPYOF-7" style="edgeStyle=orthogonalEdgeStyle;rounded=0;html=1;labelBackgroundColor=none;startSize=5;endArrow=classicThin;endFill=1;endSize=5;jettySize=auto;orthogonalLoop=1;strokeWidth=1;fontFamily=Verdana;fontSize=8;entryX=1;entryY=0;entryDx=0;entryDy=0;exitX=0.5;exitY=1;exitDx=0;exitDy=0;" parent="1" source="xwZ5hImeOtsoNdcEPYOF-5" target="xwZ5hImeOtsoNdcEPYOF-1" edge="1">
          <mxGeometry relative="1" as="geometry">
            <Array as="points">
              <mxPoint x="820" y="200" />
              <mxPoint x="577" y="200" />
            </Array>
            <mxPoint x="740" y="160" as="sourcePoint" />
            <mxPoint x="590" y="230" as="targetPoint" />
          </mxGeometry>
        </mxCell>
        <mxCell id="xwZ5hImeOtsoNdcEPYOF-8" value="Lecture schedule" style="edgeLabel;html=1;align=center;verticalAlign=middle;resizable=0;points=[];" parent="xwZ5hImeOtsoNdcEPYOF-7" vertex="1" connectable="0">
          <mxGeometry x="0.2305" relative="1" as="geometry">
            <mxPoint x="128" y="-50" as="offset" />
          </mxGeometry>
        </mxCell>
        <mxCell id="xwZ5hImeOtsoNdcEPYOF-9" style="edgeStyle=orthogonalEdgeStyle;rounded=0;html=1;labelBackgroundColor=none;startSize=5;endArrow=classicThin;endFill=1;endSize=5;jettySize=auto;orthogonalLoop=1;strokeWidth=1;fontFamily=Verdana;fontSize=8;entryX=1;entryY=0;entryDx=0;entryDy=0;exitX=0.5;exitY=1;exitDx=0;exitDy=0;" parent="1" source="xwZ5hImeOtsoNdcEPYOF-4" target="xwZ5hImeOtsoNdcEPYOF-1" edge="1">
          <mxGeometry relative="1" as="geometry">
            <Array as="points">
              <mxPoint x="650" y="130" />
              <mxPoint x="650" y="180" />
              <mxPoint x="577" y="180" />
              <mxPoint x="577" y="208" />
            </Array>
            <mxPoint x="730" y="330" as="sourcePoint" />
            <mxPoint x="576.8198051533948" y="274.99980515339473" as="targetPoint" />
          </mxGeometry>
        </mxCell>
        <mxCell id="xwZ5hImeOtsoNdcEPYOF-10" value="Event schedule" style="edgeLabel;html=1;align=center;verticalAlign=middle;resizable=0;points=[];" parent="xwZ5hImeOtsoNdcEPYOF-9" vertex="1" connectable="0">
          <mxGeometry x="0.2305" relative="1" as="geometry">
            <mxPoint x="56" y="-30" as="offset" />
          </mxGeometry>
        </mxCell>
        <mxCell id="xwZ5hImeOtsoNdcEPYOF-17" value="" style="edgeStyle=orthogonalEdgeStyle;rounded=0;html=1;labelBackgroundColor=none;startSize=5;endArrow=classicThin;endFill=1;endSize=5;jettySize=auto;orthogonalLoop=1;strokeWidth=1;fontFamily=Verdana;fontSize=8;exitX=0.5;exitY=0;exitDx=0;exitDy=0;entryX=0;entryY=0;entryDx=0;entryDy=0;" parent="1" source="xwZ5hImeOtsoNdcEPYOF-2" target="xwZ5hImeOtsoNdcEPYOF-1" edge="1">
          <mxGeometry x="-0.9231" y="-10" relative="1" as="geometry">
            <Array as="points">
              <mxPoint x="335" y="160" />
              <mxPoint x="510" y="160" />
              <mxPoint x="510" y="208" />
            </Array>
            <mxPoint as="offset" />
            <mxPoint x="350" y="155" as="sourcePoint" />
            <mxPoint x="350" y="-45" as="targetPoint" />
          </mxGeometry>
        </mxCell>
        <mxCell id="xwZ5hImeOtsoNdcEPYOF-18" value="Authentication" style="edgeLabel;html=1;align=center;verticalAlign=middle;resizable=0;points=[];" parent="xwZ5hImeOtsoNdcEPYOF-17" vertex="1" connectable="0">
          <mxGeometry x="-0.0095" relative="1" as="geometry">
            <mxPoint as="offset" />
          </mxGeometry>
        </mxCell>
        <mxCell id="xwZ5hImeOtsoNdcEPYOF-25" value="Users" style="rounded=0;whiteSpace=wrap;html=1;" parent="1" vertex="1">
          <mxGeometry x="780" y="210" width="140" height="60" as="geometry" />
        </mxCell>
        <mxCell id="xwZ5hImeOtsoNdcEPYOF-26" value="" style="endArrow=classic;html=1;rounded=0;exitX=1;exitY=0.5;exitDx=0;exitDy=0;entryX=0;entryY=0.25;entryDx=0;entryDy=0;" parent="1" source="xwZ5hImeOtsoNdcEPYOF-1" target="xwZ5hImeOtsoNdcEPYOF-25" edge="1">
          <mxGeometry width="50" height="50" relative="1" as="geometry">
            <mxPoint x="670" y="270" as="sourcePoint" />
            <mxPoint x="720" y="220" as="targetPoint" />
            <Array as="points">
              <mxPoint x="600" y="225" />
            </Array>
          </mxGeometry>
        </mxCell>
        <mxCell id="xwZ5hImeOtsoNdcEPYOF-27" value="Lecture Data by Permissions" style="edgeLabel;html=1;align=center;verticalAlign=middle;resizable=0;points=[];" parent="xwZ5hImeOtsoNdcEPYOF-26" vertex="1" connectable="0">
          <mxGeometry x="0.087" y="-2" relative="1" as="geometry">
            <mxPoint as="offset" />
          </mxGeometry>
        </mxCell>
        <mxCell id="xwZ5hImeOtsoNdcEPYOF-28" value="" style="endArrow=classic;html=1;rounded=0;exitX=1;exitY=0.5;exitDx=0;exitDy=0;entryX=0;entryY=0.75;entryDx=0;entryDy=0;" parent="1" source="xwZ5hImeOtsoNdcEPYOF-1" target="xwZ5hImeOtsoNdcEPYOF-25" edge="1">
          <mxGeometry width="50" height="50" relative="1" as="geometry">
            <mxPoint x="590" y="270" as="sourcePoint" />
            <mxPoint x="780" y="255" as="targetPoint" />
            <Array as="points">
              <mxPoint x="600" y="255" />
            </Array>
          </mxGeometry>
        </mxCell>
        <mxCell id="xwZ5hImeOtsoNdcEPYOF-29" value="Event Data by Permissions" style="edgeLabel;html=1;align=center;verticalAlign=middle;resizable=0;points=[];" parent="xwZ5hImeOtsoNdcEPYOF-28" vertex="1" connectable="0">
          <mxGeometry x="0.087" y="-2" relative="1" as="geometry">
            <mxPoint y="-7" as="offset" />
          </mxGeometry>
        </mxCell>
        <mxCell id="PQwXR6uhwassyong6BAa-1" value="" style="edgeStyle=orthogonalEdgeStyle;rounded=0;html=1;labelBackgroundColor=none;startSize=5;endArrow=none;endFill=0;endSize=5;jettySize=auto;orthogonalLoop=1;strokeWidth=1;fontFamily=Verdana;fontSize=8;exitX=0.15;exitY=0.05;exitDx=0;exitDy=0;entryX=0.5;entryY=0;entryDx=0;entryDy=0;exitPerimeter=0;startArrow=classic;startFill=1;" parent="1" source="xwZ5hImeOtsoNdcEPYOF-2" target="xwZ5hImeOtsoNdcEPYOF-1" edge="1">
          <mxGeometry x="-0.9231" y="-10" relative="1" as="geometry">
            <Array as="points">
              <mxPoint x="311" y="120" />
              <mxPoint x="545" y="120" />
            </Array>
            <mxPoint as="offset" />
            <mxPoint x="345" y="210" as="sourcePoint" />
            <mxPoint x="530" y="85" as="targetPoint" />
          </mxGeometry>
        </mxCell>
        <mxCell id="PQwXR6uhwassyong6BAa-2" value="Registration" style="edgeLabel;html=1;align=center;verticalAlign=middle;resizable=0;points=[];" parent="PQwXR6uhwassyong6BAa-1" vertex="1" connectable="0">
          <mxGeometry x="-0.0095" relative="1" as="geometry">
            <mxPoint x="21" y="-5" as="offset" />
          </mxGeometry>
        </mxCell>
        <mxCell id="PQwXR6uhwassyong6BAa-7" value="Backend Server" style="ellipse;whiteSpace=wrap;html=1;aspect=fixed;" parent="1" vertex="1">
          <mxGeometry x="610" y="340" width="80" height="80" as="geometry" />
        </mxCell>
        <mxCell id="PQwXR6uhwassyong6BAa-10" value="" style="endArrow=classic;html=1;rounded=0;exitX=0.744;exitY=0.953;exitDx=0;exitDy=0;exitPerimeter=0;entryX=0.5;entryY=0;entryDx=0;entryDy=0;startArrow=classic;startFill=1;" parent="1" source="xwZ5hImeOtsoNdcEPYOF-1" target="PQwXR6uhwassyong6BAa-7" edge="1">
          <mxGeometry width="50" height="50" relative="1" as="geometry">
            <mxPoint x="680" y="360" as="sourcePoint" />
            <mxPoint x="730" y="310" as="targetPoint" />
          </mxGeometry>
        </mxCell>
        <mxCell id="PQwXR6uhwassyong6BAa-11" value="Location Data" style="edgeLabel;html=1;align=center;verticalAlign=middle;resizable=0;points=[];" parent="PQwXR6uhwassyong6BAa-10" vertex="1" connectable="0">
          <mxGeometry x="-0.2554" y="2" relative="1" as="geometry">
            <mxPoint x="21" as="offset" />
          </mxGeometry>
        </mxCell>
        <mxCell id="PQwXR6uhwassyong6BAa-12" value="" style="endArrow=classic;startArrow=classic;html=1;rounded=0;entryX=0.664;entryY=0.984;entryDx=0;entryDy=0;entryPerimeter=0;exitX=0.5;exitY=1;exitDx=0;exitDy=0;" parent="1" edge="1">
          <mxGeometry width="50" height="50" relative="1" as="geometry">
            <mxPoint x="651" y="420" as="sourcePoint" />
            <mxPoint x="560.76" y="283.55999999999995" as="targetPoint" />
            <Array as="points">
              <mxPoint x="561" y="420" />
            </Array>
          </mxGeometry>
        </mxCell>
        <mxCell id="PQwXR6uhwassyong6BAa-13" value="Chat Data" style="edgeLabel;html=1;align=center;verticalAlign=middle;resizable=0;points=[];" parent="PQwXR6uhwassyong6BAa-12" vertex="1" connectable="0">
          <mxGeometry x="-0.4079" y="-1" relative="1" as="geometry">
            <mxPoint as="offset" />
          </mxGeometry>
        </mxCell>
        <mxCell id="PQwXR6uhwassyong6BAa-14" value="" style="endArrow=classic;html=1;rounded=0;exitX=1;exitY=1;exitDx=0;exitDy=0;entryX=0.5;entryY=1;entryDx=0;entryDy=0;" parent="1" source="xwZ5hImeOtsoNdcEPYOF-1" target="xwZ5hImeOtsoNdcEPYOF-25" edge="1">
          <mxGeometry width="50" height="50" relative="1" as="geometry">
            <mxPoint x="770" y="390" as="sourcePoint" />
            <mxPoint x="820" y="340" as="targetPoint" />
            <Array as="points">
              <mxPoint x="720" y="310" />
              <mxPoint x="850" y="310" />
            </Array>
          </mxGeometry>
        </mxCell>
        <mxCell id="PQwXR6uhwassyong6BAa-15" value="friends&#39; locations" style="edgeLabel;html=1;align=center;verticalAlign=middle;resizable=0;points=[];" parent="PQwXR6uhwassyong6BAa-14" vertex="1" connectable="0">
          <mxGeometry x="0.3274" y="-2" relative="1" as="geometry">
            <mxPoint as="offset" />
          </mxGeometry>
        </mxCell>
        <mxCell id="PQwXR6uhwassyong6BAa-16" value="" style="endArrow=classic;html=1;rounded=0;exitX=1;exitY=1;exitDx=0;exitDy=0;" parent="1" source="xwZ5hImeOtsoNdcEPYOF-1" edge="1">
          <mxGeometry width="50" height="50" relative="1" as="geometry">
            <mxPoint x="800" y="430" as="sourcePoint" />
            <mxPoint x="850" y="272" as="targetPoint" />
            <Array as="points">
              <mxPoint x="720" y="300" />
              <mxPoint x="850" y="300" />
            </Array>
          </mxGeometry>
        </mxCell>
        <mxCell id="PQwXR6uhwassyong6BAa-17" value="Chat messages" style="edgeLabel;html=1;align=center;verticalAlign=middle;resizable=0;points=[];" parent="PQwXR6uhwassyong6BAa-16" vertex="1" connectable="0">
          <mxGeometry x="0.3639" y="3" relative="1" as="geometry">
            <mxPoint as="offset" />
          </mxGeometry>
        </mxCell>
      </root>
    </mxGraphModel>
  </diagram>
</mxfile>
